<?xml version="1.0" encoding="UTF-8" standalone="no"?>
<!DOCTYPE svg PUBLIC "-//W3C//DTD SVG 1.1//EN"
 "http://www.w3.org/Graphics/SVG/1.1/DTD/svg11.dtd">
<!-- Generated by graphviz version 2.47.0 (20210316.0004)
 -->
<!-- Title: dependencies Pages: 1 -->
<svg width="2320pt" height="284pt"
 viewBox="0.00 0.00 2320.00 284.00" xmlns="http://www.w3.org/2000/svg" xmlns:xlink="http://www.w3.org/1999/xlink">
<g id="graph0" class="graph" transform="scale(1 1) rotate(0) translate(4 280)">
<title>dependencies</title>
<polygon fill="white" stroke="transparent" points="-4,4 -4,-280 2316,-280 2316,4 -4,4"/>
<text text-anchor="start" x="1135.01" y="-42.4" font-family="Times-12" font-weight="bold" font-size="14.00">Legend</text>
<polygon fill="#ffffb3" stroke="transparent" points="922,-10 922,-30 942,-30 942,-10 922,-10"/>
<text text-anchor="start" x="945.63" y="-15.4" font-family="Times-12" font-size="14.00"> &#160;Declarations</text>
<polygon fill="#8dd3c7" stroke="transparent" points="1035,-10 1035,-30 1055,-30 1055,-10 1035,-10"/>
<text text-anchor="start" x="1058.73" y="-15.4" font-family="Times-12" font-size="14.00"> &#160;Module</text>
<polygon fill="#80b1d3" stroke="transparent" points="1121,-10 1121,-30 1141,-30 1141,-10 1121,-10"/>
<text text-anchor="start" x="1144.78" y="-15.4" font-family="Times-12" font-size="14.00"> &#160;Bootstrap</text>
<polygon fill="#fdb462" stroke="transparent" points="1218,-10 1218,-30 1238,-30 1238,-10 1218,-10"/>
<text text-anchor="start" x="1241.67" y="-15.4" font-family="Times-12" font-size="14.00"> &#160;Providers</text>
<polygon fill="#fb8072" stroke="transparent" points="1314,-10 1314,-30 1334,-30 1334,-10 1314,-10"/>
<text text-anchor="start" x="1337.73" y="-15.4" font-family="Times-12" font-size="14.00"> &#160;Exports</text>
<g id="clust1" class="cluster">
<title>cluster_AppModule</title>
<polygon fill="none" stroke="black" stroke-dasharray="1,5" points="8,-70 8,-268 2304,-268 2304,-70 8,-70"/>
</g>
<g id="clust2" class="cluster">
<title>cluster_AppModule_declarations</title>
<polygon fill="none" stroke="black" points="948,-78 948,-130 2296,-130 2296,-78 948,-78"/>
</g>
<g id="clust13" class="cluster">
<title>cluster_AppModule_bootstrap</title>
<polygon fill="none" stroke="black" points="966,-208 966,-260 1090,-260 1090,-208 966,-208"/>
</g>
<g id="clust11" class="cluster">
<title>cluster_AppModule_imports</title>
<polygon fill="none" stroke="black" points="16,-78 16,-130 940,-130 940,-78 16,-78"/>
</g>
<!-- AppComponent -->
<g id="node1" class="node">
<title>AppComponent</title>
<polygon fill="#ffffb3" stroke="black" points="2287.94,-122 2182.06,-122 2182.06,-86 2287.94,-86 2287.94,-122"/>
<text text-anchor="middle" x="2235" y="-99.8" font-family="Times,serif" font-size="14.00">AppComponent</text>
</g>
<!-- AppModule -->
<g id="node9" class="node">
<title>AppModule</title>
<polygon fill="#8dd3c7" stroke="black" points="1069.66,-187 1066.66,-191 1045.66,-191 1042.66,-187 986.34,-187 986.34,-151 1069.66,-151 1069.66,-187"/>
<text text-anchor="middle" x="1028" y="-164.8" font-family="Times,serif" font-size="14.00">AppModule</text>
</g>
<!-- AppComponent&#45;&gt;AppModule -->
<g id="edge1" class="edge">
<title>AppComponent&#45;&gt;AppModule</title>
<path fill="none" stroke="black" d="M2235,-122.32C2235,-145.66 2235,-183 2235,-183 2235,-183 1079.9,-183 1079.9,-183"/>
<polygon fill="black" stroke="black" points="1079.9,-179.5 1069.9,-183 1079.9,-186.5 1079.9,-179.5"/>
</g>
<!-- StartButtonComponent -->
<g id="node2" class="node">
<title>StartButtonComponent</title>
<polygon fill="#ffffb3" stroke="black" points="2163.89,-122 2018.11,-122 2018.11,-86 2163.89,-86 2163.89,-122"/>
<text text-anchor="middle" x="2091" y="-99.8" font-family="Times,serif" font-size="14.00">StartButtonComponent</text>
</g>
<!-- StartButtonComponent&#45;&gt;AppModule -->
<g id="edge2" class="edge">
<title>StartButtonComponent&#45;&gt;AppModule</title>
<path fill="none" stroke="black" d="M2091,-122.29C2091,-144.21 2091,-178 2091,-178 2091,-178 1079.67,-178 1079.67,-178"/>
<polygon fill="black" stroke="black" points="1079.67,-174.5 1069.67,-178 1079.67,-181.5 1079.67,-174.5"/>
</g>
<!-- InformationButtonComponent -->
<g id="node3" class="node">
<title>InformationButtonComponent</title>
<polygon fill="#ffffb3" stroke="black" points="2000.32,-122 1813.68,-122 1813.68,-86 2000.32,-86 2000.32,-122"/>
<text text-anchor="middle" x="1907" y="-99.8" font-family="Times,serif" font-size="14.00">InformationButtonComponent</text>
</g>
<!-- InformationButtonComponent&#45;&gt;AppModule -->
<g id="edge3" class="edge">
<title>InformationButtonComponent&#45;&gt;AppModule</title>
<path fill="none" stroke="black" d="M1907,-122.03C1907,-142.77 1907,-174 1907,-174 1907,-174 1079.8,-174 1079.8,-174"/>
<polygon fill="black" stroke="black" points="1079.8,-170.5 1069.8,-174 1079.8,-177.5 1079.8,-170.5"/>
</g>
<!-- MainMenuComponent -->
<g id="node4" class="node">
<title>MainMenuComponent</title>
<polygon fill="#ffffb3" stroke="black" points="1795.54,-122 1652.46,-122 1652.46,-86 1795.54,-86 1795.54,-122"/>
<text text-anchor="middle" x="1724" y="-99.8" font-family="Times,serif" font-size="14.00">MainMenuComponent</text>
</g>
<!-- MainMenuComponent&#45;&gt;AppModule -->
<g id="edge4" class="edge">
<title>MainMenuComponent&#45;&gt;AppModule</title>
<path fill="none" stroke="black" d="M1724,-122.11C1724,-141.34 1724,-169 1724,-169 1724,-169 1079.71,-169 1079.71,-169"/>
<polygon fill="black" stroke="black" points="1079.71,-165.5 1069.71,-169 1079.71,-172.5 1079.71,-165.5"/>
</g>
<!-- SettingsComponentComponent -->
<g id="node5" class="node">
<title>SettingsComponentComponent</title>
<polygon fill="#ffffb3" stroke="black" points="1633.78,-122 1442.22,-122 1442.22,-86 1633.78,-86 1633.78,-122"/>
<text text-anchor="middle" x="1538" y="-99.8" font-family="Times,serif" font-size="14.00">SettingsComponentComponent</text>
</g>
<!-- SettingsComponentComponent&#45;&gt;AppModule -->
<g id="edge5" class="edge">
<title>SettingsComponentComponent&#45;&gt;AppModule</title>
<path fill="none" stroke="black" d="M1538,-122.3C1538,-140.27 1538,-165 1538,-165 1538,-165 1079.74,-165 1079.74,-165"/>
<polygon fill="black" stroke="black" points="1079.74,-161.5 1069.74,-165 1079.74,-168.5 1079.74,-161.5"/>
</g>
<!-- GameComponentComponent -->
<g id="node6" class="node">
<title>GameComponentComponent</title>
<polygon fill="#ffffb3" stroke="black" points="1424.09,-122 1243.91,-122 1243.91,-86 1424.09,-86 1424.09,-122"/>
<text text-anchor="middle" x="1334" y="-99.8" font-family="Times,serif" font-size="14.00">GameComponentComponent</text>
</g>
<!-- GameComponentComponent&#45;&gt;AppModule -->
<g id="edge6" class="edge">
<title>GameComponentComponent&#45;&gt;AppModule</title>
<path fill="none" stroke="black" d="M1334,-122.03C1334,-138.4 1334,-160 1334,-160 1334,-160 1079.91,-160 1079.91,-160"/>
<polygon fill="black" stroke="black" points="1079.91,-156.5 1069.91,-160 1079.91,-163.5 1079.91,-156.5"/>
</g>
<!-- TitleComponent -->
<g id="node7" class="node">
<title>TitleComponent</title>
<polygon fill="#ffffb3" stroke="black" points="1225.77,-122 1118.23,-122 1118.23,-86 1225.77,-86 1225.77,-122"/>
<text text-anchor="middle" x="1172" y="-99.8" font-family="Times,serif" font-size="14.00">TitleComponent</text>
</g>
<!-- TitleComponent&#45;&gt;AppModule -->
<g id="edge7" class="edge">
<title>TitleComponent&#45;&gt;AppModule</title>
<path fill="none" stroke="black" d="M1172,-122.19C1172,-137.18 1172,-156 1172,-156 1172,-156 1080.04,-156 1080.04,-156"/>
<polygon fill="black" stroke="black" points="1080.04,-152.5 1070.04,-156 1080.04,-159.5 1080.04,-152.5"/>
</g>
<!-- PlayerCardComponent -->
<g id="node8" class="node">
<title>PlayerCardComponent</title>
<polygon fill="#ffffb3" stroke="black" points="1100.31,-122 955.69,-122 955.69,-86 1100.31,-86 1100.31,-122"/>
<text text-anchor="middle" x="1028" y="-99.8" font-family="Times,serif" font-size="14.00">PlayerCardComponent</text>
</g>
<!-- PlayerCardComponent&#45;&gt;AppModule -->
<g id="edge8" class="edge">
<title>PlayerCardComponent&#45;&gt;AppModule</title>
<path fill="none" stroke="black" d="M1028,-122.11C1028,-122.11 1028,-140.99 1028,-140.99"/>
<polygon fill="black" stroke="black" points="1024.5,-140.99 1028,-150.99 1031.5,-140.99 1024.5,-140.99"/>
</g>
<!-- AppComponent  -->
<g id="node17" class="node">
<title>AppComponent </title>
<polygon fill="#80b1d3" stroke="black" points="1082.44,-252 973.56,-252 973.56,-216 1082.44,-216 1082.44,-252"/>
<text text-anchor="middle" x="1028" y="-229.8" font-family="Times,serif" font-size="14.00">AppComponent </text>
</g>
<!-- AppModule&#45;&gt;AppComponent  -->
<g id="edge16" class="edge">
<title>AppModule&#45;&gt;AppComponent </title>
<path fill="none" stroke="black" stroke-dasharray="1,5" d="M1028,-187.11C1028,-187.11 1028,-205.99 1028,-205.99"/>
<polygon fill="black" stroke="black" points="1024.5,-205.99 1028,-215.99 1031.5,-205.99 1024.5,-205.99"/>
</g>
<!-- BrowserModule -->
<g id="node10" class="node">
<title>BrowserModule</title>
<polygon fill="#8dd3c7" stroke="black" points="932.47,-122 929.47,-126 908.47,-126 905.47,-122 825.53,-122 825.53,-86 932.47,-86 932.47,-122"/>
<text text-anchor="middle" x="879" y="-99.8" font-family="Times,serif" font-size="14.00">BrowserModule</text>
</g>
<!-- BrowserModule&#45;&gt;AppModule -->
<g id="edge9" class="edge">
<title>BrowserModule&#45;&gt;AppModule</title>
<path fill="none" stroke="black" d="M879,-122.19C879,-137.18 879,-156 879,-156 879,-156 976.1,-156 976.1,-156"/>
<polygon fill="black" stroke="black" points="976.1,-159.5 986.1,-156 976.1,-152.5 976.1,-159.5"/>
</g>
<!-- AppRoutingModule -->
<g id="node11" class="node">
<title>AppRoutingModule</title>
<polygon fill="#8dd3c7" stroke="black" points="807.27,-122 804.27,-126 783.27,-126 780.27,-122 678.73,-122 678.73,-86 807.27,-86 807.27,-122"/>
<text text-anchor="middle" x="743" y="-99.8" font-family="Times,serif" font-size="14.00">AppRoutingModule</text>
</g>
<!-- AppRoutingModule&#45;&gt;AppModule -->
<g id="edge10" class="edge">
<title>AppRoutingModule&#45;&gt;AppModule</title>
<path fill="none" stroke="black" d="M743,-122.03C743,-138.4 743,-160 743,-160 743,-160 976.25,-160 976.25,-160"/>
<polygon fill="black" stroke="black" points="976.25,-163.5 986.25,-160 976.25,-156.5 976.25,-163.5"/>
</g>
<!-- MatIconModule -->
<g id="node12" class="node">
<title>MatIconModule</title>
<polygon fill="#8dd3c7" stroke="black" points="660.47,-122 657.47,-126 636.47,-126 633.47,-122 553.53,-122 553.53,-86 660.47,-86 660.47,-122"/>
<text text-anchor="middle" x="607" y="-99.8" font-family="Times,serif" font-size="14.00">MatIconModule</text>
</g>
<!-- MatIconModule&#45;&gt;AppModule -->
<g id="edge11" class="edge">
<title>MatIconModule&#45;&gt;AppModule</title>
<path fill="none" stroke="black" d="M607,-122.3C607,-140.27 607,-165 607,-165 607,-165 976.09,-165 976.09,-165"/>
<polygon fill="black" stroke="black" points="976.09,-168.5 986.09,-165 976.09,-161.5 976.09,-168.5"/>
</g>
<!-- NoopAnimationsModule -->
<g id="node13" class="node">
<title>NoopAnimationsModule</title>
<polygon fill="#8dd3c7" stroke="black" points="535.98,-122 532.98,-126 511.98,-126 508.98,-122 380.02,-122 380.02,-86 535.98,-86 535.98,-122"/>
<text text-anchor="middle" x="458" y="-99.8" font-family="Times,serif" font-size="14.00">NoopAnimationsModule</text>
</g>
<!-- NoopAnimationsModule&#45;&gt;AppModule -->
<g id="edge12" class="edge">
<title>NoopAnimationsModule&#45;&gt;AppModule</title>
<path fill="none" stroke="black" d="M458,-122.11C458,-141.34 458,-169 458,-169 458,-169 976.09,-169 976.09,-169"/>
<polygon fill="black" stroke="black" points="976.09,-172.5 986.09,-169 976.09,-165.5 976.09,-172.5"/>
</g>
<!-- NgIf -->
<g id="node14" class="node">
<title>NgIf</title>
<polygon fill="#8dd3c7" stroke="black" points="362,-122 359,-126 338,-126 335,-122 308,-122 308,-86 362,-86 362,-122"/>
<text text-anchor="middle" x="335" y="-99.8" font-family="Times,serif" font-size="14.00">NgIf</text>
</g>
<!-- NgIf&#45;&gt;AppModule -->
<g id="edge13" class="edge">
<title>NgIf&#45;&gt;AppModule</title>
<path fill="none" stroke="black" d="M335,-122.03C335,-142.77 335,-174 335,-174 335,-174 976.21,-174 976.21,-174"/>
<polygon fill="black" stroke="black" points="976.21,-177.5 986.21,-174 976.21,-170.5 976.21,-177.5"/>
</g>
<!-- MatSidenavModule -->
<g id="node15" class="node">
<title>MatSidenavModule</title>
<polygon fill="#8dd3c7" stroke="black" points="289.7,-122 286.7,-126 265.7,-126 262.7,-122 162.3,-122 162.3,-86 289.7,-86 289.7,-122"/>
<text text-anchor="middle" x="226" y="-99.8" font-family="Times,serif" font-size="14.00">MatSidenavModule</text>
</g>
<!-- MatSidenavModule&#45;&gt;AppModule -->
<g id="edge14" class="edge">
<title>MatSidenavModule&#45;&gt;AppModule</title>
<path fill="none" stroke="black" d="M226,-122.29C226,-144.21 226,-178 226,-178 226,-178 976.29,-178 976.29,-178"/>
<polygon fill="black" stroke="black" points="976.29,-181.5 986.29,-178 976.29,-174.5 976.29,-181.5"/>
</g>
<!-- MatButtonModule -->
<g id="node16" class="node">
<title>MatButtonModule</title>
<polygon fill="#8dd3c7" stroke="black" points="144.22,-122 141.22,-126 120.22,-126 117.22,-122 23.78,-122 23.78,-86 144.22,-86 144.22,-122"/>
<text text-anchor="middle" x="84" y="-99.8" font-family="Times,serif" font-size="14.00">MatButtonModule</text>
</g>
<!-- MatButtonModule&#45;&gt;AppModule -->
<g id="edge15" class="edge">
<title>MatButtonModule&#45;&gt;AppModule</title>
<path fill="none" stroke="black" d="M84,-122.32C84,-145.66 84,-183 84,-183 84,-183 976.22,-183 976.22,-183"/>
<polygon fill="black" stroke="black" points="976.22,-186.5 986.22,-183 976.22,-179.5 976.22,-186.5"/>
</g>
</g>
</svg>
