<?xml version="1.0" encoding="UTF-8" standalone="no"?>
<!DOCTYPE svg PUBLIC "-//W3C//DTD SVG 1.1//EN"
 "http://www.w3.org/Graphics/SVG/1.1/DTD/svg11.dtd">
<!-- Generated by graphviz version 2.47.0 (20210316.0004)
 -->
<!-- Title: dependencies Pages: 1 -->
<svg width="1612pt" height="284pt"
 viewBox="0.00 0.00 1612.00 284.00" xmlns="http://www.w3.org/2000/svg" xmlns:xlink="http://www.w3.org/1999/xlink">
<g id="graph0" class="graph" transform="scale(1 1) rotate(0) translate(4 280)">
<title>dependencies</title>
<polygon fill="white" stroke="transparent" points="-4,4 -4,-280 1608,-280 1608,4 -4,4"/>
<text text-anchor="start" x="781.01" y="-42.4" font-family="Times-12" font-weight="bold" font-size="14.00">Legend</text>
<polygon fill="#ffffb3" stroke="transparent" points="568,-10 568,-30 588,-30 588,-10 568,-10"/>
<text text-anchor="start" x="591.63" y="-15.4" font-family="Times-12" font-size="14.00"> &#160;Declarations</text>
<polygon fill="#8dd3c7" stroke="transparent" points="681,-10 681,-30 701,-30 701,-10 681,-10"/>
<text text-anchor="start" x="704.73" y="-15.4" font-family="Times-12" font-size="14.00"> &#160;Module</text>
<polygon fill="#80b1d3" stroke="transparent" points="767,-10 767,-30 787,-30 787,-10 767,-10"/>
<text text-anchor="start" x="790.78" y="-15.4" font-family="Times-12" font-size="14.00"> &#160;Bootstrap</text>
<polygon fill="#fdb462" stroke="transparent" points="864,-10 864,-30 884,-30 884,-10 864,-10"/>
<text text-anchor="start" x="887.67" y="-15.4" font-family="Times-12" font-size="14.00"> &#160;Providers</text>
<polygon fill="#fb8072" stroke="transparent" points="960,-10 960,-30 980,-30 980,-10 960,-10"/>
<text text-anchor="start" x="983.73" y="-15.4" font-family="Times-12" font-size="14.00"> &#160;Exports</text>
<g id="clust1" class="cluster">
<title>cluster_AppModule</title>
<polygon fill="none" stroke="black" stroke-dasharray="1,5" points="8,-70 8,-268 1596,-268 1596,-70 8,-70"/>
</g>
<g id="clust11" class="cluster">
<title>cluster_AppModule_imports</title>
<polygon fill="none" stroke="black" points="1372,-78 1372,-130 1588,-130 1588,-78 1372,-78"/>
</g>
<g id="clust13" class="cluster">
<title>cluster_AppModule_bootstrap</title>
<polygon fill="none" stroke="black" points="787,-208 787,-260 911,-260 911,-208 787,-208"/>
</g>
<g id="clust2" class="cluster">
<title>cluster_AppModule_declarations</title>
<polygon fill="none" stroke="black" points="16,-78 16,-130 1364,-130 1364,-78 16,-78"/>
</g>
<!-- AppComponent -->
<g id="node1" class="node">
<title>AppComponent</title>
<polygon fill="#ffffb3" stroke="black" points="1355.94,-122 1250.06,-122 1250.06,-86 1355.94,-86 1355.94,-122"/>
<text text-anchor="middle" x="1303" y="-99.8" font-family="Times,serif" font-size="14.00">AppComponent</text>
</g>
<!-- AppModule -->
<g id="node9" class="node">
<title>AppModule</title>
<polygon fill="#8dd3c7" stroke="black" points="890.66,-187 887.66,-191 866.66,-191 863.66,-187 807.34,-187 807.34,-151 890.66,-151 890.66,-187"/>
<text text-anchor="middle" x="849" y="-164.8" font-family="Times,serif" font-size="14.00">AppModule</text>
</g>
<!-- AppComponent&#45;&gt;AppModule -->
<g id="edge1" class="edge">
<title>AppComponent&#45;&gt;AppModule</title>
<path fill="none" stroke="black" d="M1303,-122.27C1303,-140.56 1303,-166 1303,-166 1303,-166 900.9,-166 900.9,-166"/>
<polygon fill="black" stroke="black" points="900.9,-162.5 890.9,-166 900.9,-169.5 900.9,-162.5"/>
</g>
<!-- GameComponentComponent -->
<g id="node2" class="node">
<title>GameComponentComponent</title>
<polygon fill="#ffffb3" stroke="black" points="1232.09,-122 1051.91,-122 1051.91,-86 1232.09,-86 1232.09,-122"/>
<text text-anchor="middle" x="1142" y="-99.8" font-family="Times,serif" font-size="14.00">GameComponentComponent</text>
</g>
<!-- GameComponentComponent&#45;&gt;AppModule -->
<g id="edge2" class="edge">
<title>GameComponentComponent&#45;&gt;AppModule</title>
<path fill="none" stroke="black" d="M1142,-122.01C1142,-138.05 1142,-159 1142,-159 1142,-159 900.67,-159 900.67,-159"/>
<polygon fill="black" stroke="black" points="900.67,-155.5 890.67,-159 900.67,-162.5 900.67,-155.5"/>
</g>
<!-- InformationButtonComponent -->
<g id="node3" class="node">
<title>InformationButtonComponent</title>
<polygon fill="#ffffb3" stroke="black" points="1034.32,-122 847.68,-122 847.68,-86 1034.32,-86 1034.32,-122"/>
<text text-anchor="middle" x="941" y="-99.8" font-family="Times,serif" font-size="14.00">InformationButtonComponent</text>
</g>
<!-- InformationButtonComponent&#45;&gt;AppModule -->
<g id="edge3" class="edge">
<title>InformationButtonComponent&#45;&gt;AppModule</title>
<path fill="none" stroke="black" d="M869.33,-122.11C869.33,-122.11 869.33,-140.99 869.33,-140.99"/>
<polygon fill="black" stroke="black" points="865.83,-140.99 869.33,-150.99 872.83,-140.99 865.83,-140.99"/>
</g>
<!-- MainMenuComponent -->
<g id="node4" class="node">
<title>MainMenuComponent</title>
<polygon fill="#ffffb3" stroke="black" points="829.54,-122 686.46,-122 686.46,-86 829.54,-86 829.54,-122"/>
<text text-anchor="middle" x="758" y="-99.8" font-family="Times,serif" font-size="14.00">MainMenuComponent</text>
</g>
<!-- MainMenuComponent&#45;&gt;AppModule -->
<g id="edge4" class="edge">
<title>MainMenuComponent&#45;&gt;AppModule</title>
<path fill="none" stroke="black" d="M818.47,-122.11C818.47,-122.11 818.47,-140.99 818.47,-140.99"/>
<polygon fill="black" stroke="black" points="814.97,-140.99 818.47,-150.99 821.97,-140.99 814.97,-140.99"/>
</g>
<!-- PlayerCardComponent -->
<g id="node5" class="node">
<title>PlayerCardComponent</title>
<polygon fill="#ffffb3" stroke="black" points="668.31,-122 523.69,-122 523.69,-86 668.31,-86 668.31,-122"/>
<text text-anchor="middle" x="596" y="-99.8" font-family="Times,serif" font-size="14.00">PlayerCardComponent</text>
</g>
<!-- PlayerCardComponent&#45;&gt;AppModule -->
<g id="edge5" class="edge">
<title>PlayerCardComponent&#45;&gt;AppModule</title>
<path fill="none" stroke="black" d="M596,-122.01C596,-138.05 596,-159 596,-159 596,-159 797.22,-159 797.22,-159"/>
<polygon fill="black" stroke="black" points="797.22,-162.5 807.22,-159 797.22,-155.5 797.22,-162.5"/>
</g>
<!-- SettingsComponentComponent -->
<g id="node6" class="node">
<title>SettingsComponentComponent</title>
<polygon fill="#ffffb3" stroke="black" points="505.78,-122 314.22,-122 314.22,-86 505.78,-86 505.78,-122"/>
<text text-anchor="middle" x="410" y="-99.8" font-family="Times,serif" font-size="14.00">SettingsComponentComponent</text>
</g>
<!-- SettingsComponentComponent&#45;&gt;AppModule -->
<g id="edge6" class="edge">
<title>SettingsComponentComponent&#45;&gt;AppModule</title>
<path fill="none" stroke="black" d="M410,-122.27C410,-140.56 410,-166 410,-166 410,-166 797.3,-166 797.3,-166"/>
<polygon fill="black" stroke="black" points="797.3,-169.5 807.3,-166 797.3,-162.5 797.3,-169.5"/>
</g>
<!-- StartButtonComponent -->
<g id="node7" class="node">
<title>StartButtonComponent</title>
<polygon fill="#ffffb3" stroke="black" points="295.89,-122 150.11,-122 150.11,-86 295.89,-86 295.89,-122"/>
<text text-anchor="middle" x="223" y="-99.8" font-family="Times,serif" font-size="14.00">StartButtonComponent</text>
</g>
<!-- StartButtonComponent&#45;&gt;AppModule -->
<g id="edge7" class="edge">
<title>StartButtonComponent&#45;&gt;AppModule</title>
<path fill="none" stroke="black" d="M223,-122.13C223,-142.57 223,-173 223,-173 223,-173 796.95,-173 796.95,-173"/>
<polygon fill="black" stroke="black" points="796.95,-176.5 806.95,-173 796.95,-169.5 796.95,-176.5"/>
</g>
<!-- TitleComponent -->
<g id="node8" class="node">
<title>TitleComponent</title>
<polygon fill="#ffffb3" stroke="black" points="131.77,-122 24.23,-122 24.23,-86 131.77,-86 131.77,-122"/>
<text text-anchor="middle" x="78" y="-99.8" font-family="Times,serif" font-size="14.00">TitleComponent</text>
</g>
<!-- TitleComponent&#45;&gt;AppModule -->
<g id="edge8" class="edge">
<title>TitleComponent&#45;&gt;AppModule</title>
<path fill="none" stroke="black" d="M78,-122.01C78,-144.49 78,-180 78,-180 78,-180 797.27,-180 797.27,-180"/>
<polygon fill="black" stroke="black" points="797.27,-183.5 807.27,-180 797.27,-176.5 797.27,-183.5"/>
</g>
<!-- AppComponent  -->
<g id="node12" class="node">
<title>AppComponent </title>
<polygon fill="#80b1d3" stroke="black" points="903.44,-252 794.56,-252 794.56,-216 903.44,-216 903.44,-252"/>
<text text-anchor="middle" x="849" y="-229.8" font-family="Times,serif" font-size="14.00">AppComponent </text>
</g>
<!-- AppModule&#45;&gt;AppComponent  -->
<g id="edge11" class="edge">
<title>AppModule&#45;&gt;AppComponent </title>
<path fill="none" stroke="black" stroke-dasharray="1,5" d="M849,-187.11C849,-187.11 849,-205.99 849,-205.99"/>
<polygon fill="black" stroke="black" points="845.5,-205.99 849,-215.99 852.5,-205.99 845.5,-205.99"/>
</g>
<!-- AppRoutingModule -->
<g id="node10" class="node">
<title>AppRoutingModule</title>
<polygon fill="#8dd3c7" stroke="black" points="1580.27,-122 1577.27,-126 1556.27,-126 1553.27,-122 1451.73,-122 1451.73,-86 1580.27,-86 1580.27,-122"/>
<text text-anchor="middle" x="1516" y="-99.8" font-family="Times,serif" font-size="14.00">AppRoutingModule</text>
</g>
<!-- AppRoutingModule&#45;&gt;AppModule -->
<g id="edge9" class="edge">
<title>AppRoutingModule&#45;&gt;AppModule</title>
<path fill="none" stroke="black" d="M1516,-122.01C1516,-144.49 1516,-180 1516,-180 1516,-180 900.72,-180 900.72,-180"/>
<polygon fill="black" stroke="black" points="900.72,-176.5 890.72,-180 900.72,-183.5 900.72,-176.5"/>
</g>
<!-- NgIf -->
<g id="node11" class="node">
<title>NgIf</title>
<polygon fill="#8dd3c7" stroke="black" points="1434,-122 1431,-126 1410,-126 1407,-122 1380,-122 1380,-86 1434,-86 1434,-122"/>
<text text-anchor="middle" x="1407" y="-99.8" font-family="Times,serif" font-size="14.00">NgIf</text>
</g>
<!-- NgIf&#45;&gt;AppModule -->
<g id="edge10" class="edge">
<title>NgIf&#45;&gt;AppModule</title>
<path fill="none" stroke="black" d="M1407,-122.13C1407,-142.57 1407,-173 1407,-173 1407,-173 900.94,-173 900.94,-173"/>
<polygon fill="black" stroke="black" points="900.94,-169.5 890.94,-173 900.94,-176.5 900.94,-169.5"/>
</g>
</g>
</svg>
