<?xml version="1.0" encoding="UTF-8" standalone="no"?>
<!DOCTYPE svg PUBLIC "-//W3C//DTD SVG 1.1//EN"
 "http://www.w3.org/Graphics/SVG/1.1/DTD/svg11.dtd">
<!-- Generated by graphviz version 2.47.0 (20210316.0004)
 -->
<!-- Title: dependencies Pages: 1 -->
<svg width="2665pt" height="290pt"
 viewBox="0.00 0.00 2665.00 290.00" xmlns="http://www.w3.org/2000/svg" xmlns:xlink="http://www.w3.org/1999/xlink">
<g id="graph0" class="graph" transform="scale(1 1) rotate(0) translate(4 286)">
<title>dependencies</title>
<polygon fill="white" stroke="transparent" points="-4,4 -4,-286 2661,-286 2661,4 -4,4"/>
<text text-anchor="start" x="1307.51" y="-42.4" font-family="Times-12" font-weight="bold" font-size="14.00">Legend</text>
<polygon fill="#ffffb3" stroke="transparent" points="1094.5,-10 1094.5,-30 1114.5,-30 1114.5,-10 1094.5,-10"/>
<text text-anchor="start" x="1118.13" y="-15.4" font-family="Times-12" font-size="14.00"> &#160;Declarations</text>
<polygon fill="#8dd3c7" stroke="transparent" points="1207.5,-10 1207.5,-30 1227.5,-30 1227.5,-10 1207.5,-10"/>
<text text-anchor="start" x="1231.23" y="-15.4" font-family="Times-12" font-size="14.00"> &#160;Module</text>
<polygon fill="#80b1d3" stroke="transparent" points="1293.5,-10 1293.5,-30 1313.5,-30 1313.5,-10 1293.5,-10"/>
<text text-anchor="start" x="1317.28" y="-15.4" font-family="Times-12" font-size="14.00"> &#160;Bootstrap</text>
<polygon fill="#fdb462" stroke="transparent" points="1390.5,-10 1390.5,-30 1410.5,-30 1410.5,-10 1390.5,-10"/>
<text text-anchor="start" x="1414.17" y="-15.4" font-family="Times-12" font-size="14.00"> &#160;Providers</text>
<polygon fill="#fb8072" stroke="transparent" points="1486.5,-10 1486.5,-30 1506.5,-30 1506.5,-10 1486.5,-10"/>
<text text-anchor="start" x="1510.23" y="-15.4" font-family="Times-12" font-size="14.00"> &#160;Exports</text>
<g id="clust1" class="cluster">
<title>cluster_AppModule</title>
<polygon fill="none" stroke="black" stroke-dasharray="1,5" points="8,-70 8,-274 2305,-274 2305,-70 8,-70"/>
</g>
<g id="clust2" class="cluster">
<title>cluster_AppModule_declarations</title>
<polygon fill="none" stroke="black" points="16,-78 16,-130 1364,-130 1364,-78 16,-78"/>
</g>
<g id="clust11" class="cluster">
<title>cluster_AppModule_imports</title>
<polygon fill="none" stroke="black" points="1372,-78 1372,-130 2297,-130 2297,-78 1372,-78"/>
</g>
<g id="clust13" class="cluster">
<title>cluster_AppModule_bootstrap</title>
<polygon fill="none" stroke="black" points="1241,-214 1241,-266 1365,-266 1365,-214 1241,-214"/>
</g>
<g id="clust15" class="cluster">
<title>cluster_AppRoutingModule</title>
<polygon fill="none" stroke="black" stroke-dasharray="1,5" points="2313,-138 2313,-206 2649,-206 2649,-138 2313,-138"/>
</g>
<g id="clust17" class="cluster">
<title>cluster_AppRoutingModule_imports</title>
<polygon fill="none" stroke="black" points="2447,-146 2447,-198 2641,-198 2641,-146 2447,-146"/>
</g>
<g id="clust18" class="cluster">
<title>cluster_AppRoutingModule_exports</title>
<polygon fill="none" stroke="black" points="2321,-146 2321,-198 2439,-198 2439,-146 2321,-146"/>
</g>
<!-- AppComponent -->
<g id="node1" class="node">
<title>AppComponent</title>
<polygon fill="#ffffb3" stroke="black" points="1355.94,-122 1250.06,-122 1250.06,-86 1355.94,-86 1355.94,-122"/>
<text text-anchor="middle" x="1303" y="-99.8" font-family="Times,serif" font-size="14.00">AppComponent</text>
</g>
<!-- AppModule -->
<g id="node9" class="node">
<title>AppModule</title>
<polygon fill="#8dd3c7" stroke="black" points="1344.66,-190 1341.66,-194 1320.66,-194 1317.66,-190 1261.34,-190 1261.34,-154 1344.66,-154 1344.66,-190"/>
<text text-anchor="middle" x="1303" y="-167.8" font-family="Times,serif" font-size="14.00">AppModule</text>
</g>
<!-- AppComponent&#45;&gt;AppModule -->
<g id="edge1" class="edge">
<title>AppComponent&#45;&gt;AppModule</title>
<path fill="none" stroke="black" d="M1303,-122.22C1303,-122.22 1303,-143.73 1303,-143.73"/>
<polygon fill="black" stroke="black" points="1299.5,-143.73 1303,-153.73 1306.5,-143.73 1299.5,-143.73"/>
</g>
<!-- StartButtonComponent -->
<g id="node2" class="node">
<title>StartButtonComponent</title>
<polygon fill="#ffffb3" stroke="black" points="1231.89,-122 1086.11,-122 1086.11,-86 1231.89,-86 1231.89,-122"/>
<text text-anchor="middle" x="1159" y="-99.8" font-family="Times,serif" font-size="14.00">StartButtonComponent</text>
</g>
<!-- StartButtonComponent&#45;&gt;AppModule -->
<g id="edge2" class="edge">
<title>StartButtonComponent&#45;&gt;AppModule</title>
<path fill="none" stroke="black" d="M1159,-122.01C1159,-138.05 1159,-159 1159,-159 1159,-159 1250.96,-159 1250.96,-159"/>
<polygon fill="black" stroke="black" points="1250.96,-162.5 1260.96,-159 1250.96,-155.5 1250.96,-162.5"/>
</g>
<!-- InformationButtonComponent -->
<g id="node3" class="node">
<title>InformationButtonComponent</title>
<polygon fill="#ffffb3" stroke="black" points="1068.32,-122 881.68,-122 881.68,-86 1068.32,-86 1068.32,-122"/>
<text text-anchor="middle" x="975" y="-99.8" font-family="Times,serif" font-size="14.00">InformationButtonComponent</text>
</g>
<!-- InformationButtonComponent&#45;&gt;AppModule -->
<g id="edge3" class="edge">
<title>InformationButtonComponent&#45;&gt;AppModule</title>
<path fill="none" stroke="black" d="M975,-122.02C975,-139.37 975,-163 975,-163 975,-163 1251.13,-163 1251.13,-163"/>
<polygon fill="black" stroke="black" points="1251.13,-166.5 1261.13,-163 1251.13,-159.5 1251.13,-166.5"/>
</g>
<!-- MainMenuComponent -->
<g id="node4" class="node">
<title>MainMenuComponent</title>
<polygon fill="#ffffb3" stroke="black" points="863.54,-122 720.46,-122 720.46,-86 863.54,-86 863.54,-122"/>
<text text-anchor="middle" x="792" y="-99.8" font-family="Times,serif" font-size="14.00">MainMenuComponent</text>
</g>
<!-- MainMenuComponent&#45;&gt;AppModule -->
<g id="edge4" class="edge">
<title>MainMenuComponent&#45;&gt;AppModule</title>
<path fill="none" stroke="black" d="M792,-122.17C792,-141.09 792,-168 792,-168 792,-168 1251.18,-168 1251.18,-168"/>
<polygon fill="black" stroke="black" points="1251.18,-171.5 1261.18,-168 1251.18,-164.5 1251.18,-171.5"/>
</g>
<!-- SettingsComponentComponent -->
<g id="node5" class="node">
<title>SettingsComponentComponent</title>
<polygon fill="#ffffb3" stroke="black" points="701.78,-122 510.22,-122 510.22,-86 701.78,-86 701.78,-122"/>
<text text-anchor="middle" x="606" y="-99.8" font-family="Times,serif" font-size="14.00">SettingsComponentComponent</text>
</g>
<!-- SettingsComponentComponent&#45;&gt;AppModule -->
<g id="edge5" class="edge">
<title>SettingsComponentComponent&#45;&gt;AppModule</title>
<path fill="none" stroke="black" d="M606,-122.22C606,-142.37 606,-172 606,-172 606,-172 1251.23,-172 1251.23,-172"/>
<polygon fill="black" stroke="black" points="1251.23,-175.5 1261.23,-172 1251.23,-168.5 1251.23,-175.5"/>
</g>
<!-- GameComponentComponent -->
<g id="node6" class="node">
<title>GameComponentComponent</title>
<polygon fill="#ffffb3" stroke="black" points="492.09,-122 311.91,-122 311.91,-86 492.09,-86 492.09,-122"/>
<text text-anchor="middle" x="402" y="-99.8" font-family="Times,serif" font-size="14.00">GameComponentComponent</text>
</g>
<!-- GameComponentComponent&#45;&gt;AppModule -->
<g id="edge6" class="edge">
<title>GameComponentComponent&#45;&gt;AppModule</title>
<path fill="none" stroke="black" d="M402,-122.04C402,-143.66 402,-177 402,-177 402,-177 1251.05,-177 1251.05,-177"/>
<polygon fill="black" stroke="black" points="1251.05,-180.5 1261.05,-177 1251.05,-173.5 1251.05,-180.5"/>
</g>
<!-- TitleComponent -->
<g id="node7" class="node">
<title>TitleComponent</title>
<polygon fill="#ffffb3" stroke="black" points="293.77,-122 186.23,-122 186.23,-86 293.77,-86 293.77,-122"/>
<text text-anchor="middle" x="240" y="-99.8" font-family="Times,serif" font-size="14.00">TitleComponent</text>
</g>
<!-- TitleComponent&#45;&gt;AppModule -->
<g id="edge7" class="edge">
<title>TitleComponent&#45;&gt;AppModule</title>
<path fill="none" stroke="black" d="M240,-122.25C240,-145.02 240,-181 240,-181 240,-181 1251.33,-181 1251.33,-181"/>
<polygon fill="black" stroke="black" points="1251.33,-184.5 1261.33,-181 1251.33,-177.5 1251.33,-184.5"/>
</g>
<!-- PlayerCardComponent -->
<g id="node8" class="node">
<title>PlayerCardComponent</title>
<polygon fill="#ffffb3" stroke="black" points="168.31,-122 23.69,-122 23.69,-86 168.31,-86 168.31,-122"/>
<text text-anchor="middle" x="96" y="-99.8" font-family="Times,serif" font-size="14.00">PlayerCardComponent</text>
</g>
<!-- PlayerCardComponent&#45;&gt;AppModule -->
<g id="edge8" class="edge">
<title>PlayerCardComponent&#45;&gt;AppModule</title>
<path fill="none" stroke="black" d="M96,-122.2C96,-146.36 96,-186 96,-186 96,-186 1251.1,-186 1251.1,-186"/>
<polygon fill="black" stroke="black" points="1251.1,-189.5 1261.1,-186 1251.1,-182.5 1251.1,-189.5"/>
</g>
<!-- AppComponent  -->
<g id="node17" class="node">
<title>AppComponent </title>
<polygon fill="#80b1d3" stroke="black" points="1357.44,-258 1248.56,-258 1248.56,-222 1357.44,-222 1357.44,-258"/>
<text text-anchor="middle" x="1303" y="-235.8" font-family="Times,serif" font-size="14.00">AppComponent </text>
</g>
<!-- AppModule&#45;&gt;AppComponent  -->
<g id="edge16" class="edge">
<title>AppModule&#45;&gt;AppComponent </title>
<path fill="none" stroke="black" stroke-dasharray="1,5" d="M1303,-190.22C1303,-190.22 1303,-211.73 1303,-211.73"/>
<polygon fill="black" stroke="black" points="1299.5,-211.73 1303,-221.73 1306.5,-211.73 1299.5,-211.73"/>
</g>
<!-- BrowserModule -->
<g id="node10" class="node">
<title>BrowserModule</title>
<polygon fill="#8dd3c7" stroke="black" points="2142.47,-122 2139.47,-126 2118.47,-126 2115.47,-122 2035.53,-122 2035.53,-86 2142.47,-86 2142.47,-122"/>
<text text-anchor="middle" x="2089" y="-99.8" font-family="Times,serif" font-size="14.00">BrowserModule</text>
</g>
<!-- BrowserModule&#45;&gt;AppModule -->
<g id="edge9" class="edge">
<title>BrowserModule&#45;&gt;AppModule</title>
<path fill="none" stroke="black" d="M2089,-122.25C2089,-145.02 2089,-181 2089,-181 2089,-181 1354.7,-181 1354.7,-181"/>
<polygon fill="black" stroke="black" points="1354.7,-177.5 1344.7,-181 1354.7,-184.5 1354.7,-177.5"/>
</g>
<!-- AppRoutingModule -->
<g id="node11" class="node">
<title>AppRoutingModule</title>
<polygon fill="#8dd3c7" stroke="black" points="2289.27,-122 2286.27,-126 2265.27,-126 2262.27,-122 2160.73,-122 2160.73,-86 2289.27,-86 2289.27,-122"/>
<text text-anchor="middle" x="2225" y="-99.8" font-family="Times,serif" font-size="14.00">AppRoutingModule</text>
</g>
<!-- AppRoutingModule&#45;&gt;AppModule -->
<g id="edge10" class="edge">
<title>AppRoutingModule&#45;&gt;AppModule</title>
<path fill="none" stroke="black" d="M2225,-122.2C2225,-146.36 2225,-186 2225,-186 2225,-186 1354.71,-186 1354.71,-186"/>
<polygon fill="black" stroke="black" points="1354.71,-182.5 1344.71,-186 1354.71,-189.5 1354.71,-182.5"/>
</g>
<!-- RouterModule  -->
<g id="node19" class="node">
<title>RouterModule </title>
<polygon fill="#fb8072" stroke="black" points="2430.65,-190 2329.35,-190 2329.35,-154 2430.65,-154 2430.65,-190"/>
<text text-anchor="middle" x="2380" y="-167.8" font-family="Times,serif" font-size="14.00">RouterModule </text>
</g>
<!-- AppRoutingModule&#45;&gt;RouterModule  -->
<g id="edge18" class="edge">
<title>AppRoutingModule&#45;&gt;RouterModule </title>
<path fill="none" stroke="black" stroke-dasharray="5,2" d="M2289.39,-110C2331.97,-110 2380,-110 2380,-110 2380,-110 2380,-143.73 2380,-143.73"/>
<polygon fill="black" stroke="black" points="2376.5,-143.73 2380,-153.73 2383.5,-143.73 2376.5,-143.73"/>
</g>
<!-- MatIconModule -->
<g id="node12" class="node">
<title>MatIconModule</title>
<polygon fill="#8dd3c7" stroke="black" points="1878.47,-122 1875.47,-126 1854.47,-126 1851.47,-122 1771.53,-122 1771.53,-86 1878.47,-86 1878.47,-122"/>
<text text-anchor="middle" x="1825" y="-99.8" font-family="Times,serif" font-size="14.00">MatIconModule</text>
</g>
<!-- MatIconModule&#45;&gt;AppModule -->
<g id="edge11" class="edge">
<title>MatIconModule&#45;&gt;AppModule</title>
<path fill="none" stroke="black" d="M1825,-122.22C1825,-142.37 1825,-172 1825,-172 1825,-172 1354.84,-172 1354.84,-172"/>
<polygon fill="black" stroke="black" points="1354.84,-168.5 1344.84,-172 1354.84,-175.5 1354.84,-168.5"/>
</g>
<!-- NoopAnimationsModule -->
<g id="node13" class="node">
<title>NoopAnimationsModule</title>
<polygon fill="#8dd3c7" stroke="black" points="1753.98,-122 1750.98,-126 1729.98,-126 1726.98,-122 1598.02,-122 1598.02,-86 1753.98,-86 1753.98,-122"/>
<text text-anchor="middle" x="1676" y="-99.8" font-family="Times,serif" font-size="14.00">NoopAnimationsModule</text>
</g>
<!-- NoopAnimationsModule&#45;&gt;AppModule -->
<g id="edge12" class="edge">
<title>NoopAnimationsModule&#45;&gt;AppModule</title>
<path fill="none" stroke="black" d="M1676,-122.17C1676,-141.09 1676,-168 1676,-168 1676,-168 1354.7,-168 1354.7,-168"/>
<polygon fill="black" stroke="black" points="1354.7,-164.5 1344.7,-168 1354.7,-171.5 1354.7,-164.5"/>
</g>
<!-- NgIf -->
<g id="node14" class="node">
<title>NgIf</title>
<polygon fill="#8dd3c7" stroke="black" points="1580,-122 1577,-126 1556,-126 1553,-122 1526,-122 1526,-86 1580,-86 1580,-122"/>
<text text-anchor="middle" x="1553" y="-99.8" font-family="Times,serif" font-size="14.00">NgIf</text>
</g>
<!-- NgIf&#45;&gt;AppModule -->
<g id="edge13" class="edge">
<title>NgIf&#45;&gt;AppModule</title>
<path fill="none" stroke="black" d="M1553,-122.02C1553,-139.37 1553,-163 1553,-163 1553,-163 1354.84,-163 1354.84,-163"/>
<polygon fill="black" stroke="black" points="1354.84,-159.5 1344.84,-163 1354.84,-166.5 1354.84,-159.5"/>
</g>
<!-- MatSidenavModule -->
<g id="node15" class="node">
<title>MatSidenavModule</title>
<polygon fill="#8dd3c7" stroke="black" points="1507.7,-122 1504.7,-126 1483.7,-126 1480.7,-122 1380.3,-122 1380.3,-86 1507.7,-86 1507.7,-122"/>
<text text-anchor="middle" x="1444" y="-99.8" font-family="Times,serif" font-size="14.00">MatSidenavModule</text>
</g>
<!-- MatSidenavModule&#45;&gt;AppModule -->
<g id="edge14" class="edge">
<title>MatSidenavModule&#45;&gt;AppModule</title>
<path fill="none" stroke="black" d="M1444,-122.01C1444,-138.05 1444,-159 1444,-159 1444,-159 1354.92,-159 1354.92,-159"/>
<polygon fill="black" stroke="black" points="1354.92,-155.5 1344.92,-159 1354.92,-162.5 1354.92,-155.5"/>
</g>
<!-- MatButtonModule -->
<g id="node16" class="node">
<title>MatButtonModule</title>
<polygon fill="#8dd3c7" stroke="black" points="2017.22,-122 2014.22,-126 1993.22,-126 1990.22,-122 1896.78,-122 1896.78,-86 2017.22,-86 2017.22,-122"/>
<text text-anchor="middle" x="1957" y="-99.8" font-family="Times,serif" font-size="14.00">MatButtonModule</text>
</g>
<!-- MatButtonModule&#45;&gt;AppModule -->
<g id="edge15" class="edge">
<title>MatButtonModule&#45;&gt;AppModule</title>
<path fill="none" stroke="black" d="M1957,-122.04C1957,-143.66 1957,-177 1957,-177 1957,-177 1354.91,-177 1354.91,-177"/>
<polygon fill="black" stroke="black" points="1354.91,-173.5 1344.91,-177 1354.91,-180.5 1354.91,-173.5"/>
</g>
<!-- RouterModule.forRoot(args) -->
<g id="node18" class="node">
<title>RouterModule.forRoot(args)</title>
<polygon fill="#8dd3c7" stroke="black" points="2632.84,-190 2629.84,-194 2608.84,-194 2605.84,-190 2455.16,-190 2455.16,-154 2632.84,-154 2632.84,-190"/>
<text text-anchor="middle" x="2544" y="-167.8" font-family="Times,serif" font-size="14.00">RouterModule.forRoot(args)</text>
</g>
<!-- RouterModule.forRoot(args)&#45;&gt;AppRoutingModule -->
<g id="edge17" class="edge">
<title>RouterModule.forRoot(args)&#45;&gt;AppRoutingModule</title>
<path fill="none" stroke="black" d="M2544,-153.71C2544,-131.79 2544,-98 2544,-98 2544,-98 2299.55,-98 2299.55,-98"/>
<polygon fill="black" stroke="black" points="2299.55,-94.5 2289.55,-98 2299.55,-101.5 2299.55,-94.5"/>
</g>
</g>
</svg>
