<?xml version="1.0" encoding="UTF-8" standalone="no"?>
<!DOCTYPE svg PUBLIC "-//W3C//DTD SVG 1.1//EN"
 "http://www.w3.org/Graphics/SVG/1.1/DTD/svg11.dtd">
<!-- Generated by graphviz version 2.47.0 (20210316.0004)
 -->
<!-- Title: dependencies Pages: 1 -->
<svg width="1612pt" height="284pt"
 viewBox="0.00 0.00 1612.00 284.00" xmlns="http://www.w3.org/2000/svg" xmlns:xlink="http://www.w3.org/1999/xlink">
<g id="graph0" class="graph" transform="scale(1 1) rotate(0) translate(4 280)">
<title>dependencies</title>
<polygon fill="white" stroke="transparent" points="-4,4 -4,-280 1608,-280 1608,4 -4,4"/>
<text text-anchor="start" x="781.01" y="-42.4" font-family="Times-12" font-weight="bold" font-size="14.00">Legend</text>
<polygon fill="#ffffb3" stroke="transparent" points="568,-10 568,-30 588,-30 588,-10 568,-10"/>
<text text-anchor="start" x="591.63" y="-15.4" font-family="Times-12" font-size="14.00"> &#160;Declarations</text>
<polygon fill="#8dd3c7" stroke="transparent" points="681,-10 681,-30 701,-30 701,-10 681,-10"/>
<text text-anchor="start" x="704.73" y="-15.4" font-family="Times-12" font-size="14.00"> &#160;Module</text>
<polygon fill="#80b1d3" stroke="transparent" points="767,-10 767,-30 787,-30 787,-10 767,-10"/>
<text text-anchor="start" x="790.78" y="-15.4" font-family="Times-12" font-size="14.00"> &#160;Bootstrap</text>
<polygon fill="#fdb462" stroke="transparent" points="864,-10 864,-30 884,-30 884,-10 864,-10"/>
<text text-anchor="start" x="887.67" y="-15.4" font-family="Times-12" font-size="14.00"> &#160;Providers</text>
<polygon fill="#fb8072" stroke="transparent" points="960,-10 960,-30 980,-30 980,-10 960,-10"/>
<text text-anchor="start" x="983.73" y="-15.4" font-family="Times-12" font-size="14.00"> &#160;Exports</text>
<g id="clust1" class="cluster">
<title>cluster_AppModule</title>
<polygon fill="none" stroke="black" stroke-dasharray="1,5" points="8,-70 8,-268 1596,-268 1596,-70 8,-70"/>
</g>
<g id="clust2" class="cluster">
<title>cluster_AppModule_declarations</title>
<polygon fill="none" stroke="black" points="240,-78 240,-130 1588,-130 1588,-78 240,-78"/>
</g>
<g id="clust11" class="cluster">
<title>cluster_AppModule_imports</title>
<polygon fill="none" stroke="black" points="16,-78 16,-130 232,-130 232,-78 16,-78"/>
</g>
<g id="clust12" class="cluster">
<title>cluster_AppModule_exports</title>
<polygon fill="none" stroke="black" points="568,-208 568,-260 734,-260 734,-208 568,-208"/>
</g>
<g id="clust13" class="cluster">
<title>cluster_AppModule_bootstrap</title>
<polygon fill="none" stroke="black" points="742,-208 742,-260 866,-260 866,-208 742,-208"/>
</g>
<!-- AppComponent -->
<g id="node1" class="node">
<title>AppComponent</title>
<polygon fill="#ffffb3" stroke="black" points="1579.94,-122 1474.06,-122 1474.06,-86 1579.94,-86 1579.94,-122"/>
<text text-anchor="middle" x="1527" y="-99.8" font-family="Times,serif" font-size="14.00">AppComponent</text>
</g>
<!-- AppModule -->
<g id="node9" class="node">
<title>AppModule</title>
<polygon fill="#8dd3c7" stroke="black" points="768.66,-187 765.66,-191 744.66,-191 741.66,-187 685.34,-187 685.34,-151 768.66,-151 768.66,-187"/>
<text text-anchor="middle" x="727" y="-164.8" font-family="Times,serif" font-size="14.00">AppModule</text>
</g>
<!-- AppComponent&#45;&gt;AppModule -->
<g id="edge1" class="edge">
<title>AppComponent&#45;&gt;AppModule</title>
<path fill="none" stroke="black" d="M1527,-122.01C1527,-144.49 1527,-180 1527,-180 1527,-180 778.89,-180 778.89,-180"/>
<polygon fill="black" stroke="black" points="778.89,-176.5 768.89,-180 778.89,-183.5 778.89,-176.5"/>
</g>
<!-- GameComponentComponent -->
<g id="node2" class="node">
<title>GameComponentComponent</title>
<polygon fill="#ffffb3" stroke="black" points="1456.09,-122 1275.91,-122 1275.91,-86 1456.09,-86 1456.09,-122"/>
<text text-anchor="middle" x="1366" y="-99.8" font-family="Times,serif" font-size="14.00">GameComponentComponent</text>
</g>
<!-- GameComponentComponent&#45;&gt;AppModule -->
<g id="edge2" class="edge">
<title>GameComponentComponent&#45;&gt;AppModule</title>
<path fill="none" stroke="black" d="M1366,-122.13C1366,-142.57 1366,-173 1366,-173 1366,-173 778.93,-173 778.93,-173"/>
<polygon fill="black" stroke="black" points="778.93,-169.5 768.93,-173 778.93,-176.5 778.93,-169.5"/>
</g>
<!-- InformationButtonComponent -->
<g id="node3" class="node">
<title>InformationButtonComponent</title>
<polygon fill="#ffffb3" stroke="black" points="1258.32,-122 1071.68,-122 1071.68,-86 1258.32,-86 1258.32,-122"/>
<text text-anchor="middle" x="1165" y="-99.8" font-family="Times,serif" font-size="14.00">InformationButtonComponent</text>
</g>
<!-- InformationButtonComponent&#45;&gt;AppModule -->
<g id="edge3" class="edge">
<title>InformationButtonComponent&#45;&gt;AppModule</title>
<path fill="none" stroke="black" d="M1165,-122.27C1165,-140.56 1165,-166 1165,-166 1165,-166 779,-166 779,-166"/>
<polygon fill="black" stroke="black" points="779,-162.5 769,-166 779,-169.5 779,-162.5"/>
</g>
<!-- MainMenuComponent -->
<g id="node4" class="node">
<title>MainMenuComponent</title>
<polygon fill="#ffffb3" stroke="black" points="1053.54,-122 910.46,-122 910.46,-86 1053.54,-86 1053.54,-122"/>
<text text-anchor="middle" x="982" y="-99.8" font-family="Times,serif" font-size="14.00">MainMenuComponent</text>
</g>
<!-- MainMenuComponent&#45;&gt;AppModule -->
<g id="edge4" class="edge">
<title>MainMenuComponent&#45;&gt;AppModule</title>
<path fill="none" stroke="black" d="M982,-122.01C982,-138.05 982,-159 982,-159 982,-159 778.82,-159 778.82,-159"/>
<polygon fill="black" stroke="black" points="778.82,-155.5 768.82,-159 778.82,-162.5 778.82,-155.5"/>
</g>
<!-- PlayerCardComponent -->
<g id="node5" class="node">
<title>PlayerCardComponent</title>
<polygon fill="#ffffb3" stroke="black" points="892.31,-122 747.69,-122 747.69,-86 892.31,-86 892.31,-122"/>
<text text-anchor="middle" x="820" y="-99.8" font-family="Times,serif" font-size="14.00">PlayerCardComponent</text>
</g>
<!-- PlayerCardComponent&#45;&gt;AppModule -->
<g id="edge5" class="edge">
<title>PlayerCardComponent&#45;&gt;AppModule</title>
<path fill="none" stroke="black" d="M758.34,-122.11C758.34,-122.11 758.34,-140.99 758.34,-140.99"/>
<polygon fill="black" stroke="black" points="754.84,-140.99 758.34,-150.99 761.84,-140.99 754.84,-140.99"/>
</g>
<!-- SettingsComponentComponent -->
<g id="node6" class="node">
<title>SettingsComponentComponent</title>
<polygon fill="#ffffb3" stroke="black" points="729.78,-122 538.22,-122 538.22,-86 729.78,-86 729.78,-122"/>
<text text-anchor="middle" x="634" y="-99.8" font-family="Times,serif" font-size="14.00">SettingsComponentComponent</text>
</g>
<!-- SettingsComponentComponent&#45;&gt;AppModule -->
<g id="edge6" class="edge">
<title>SettingsComponentComponent&#45;&gt;AppModule</title>
<path fill="none" stroke="black" d="M707.53,-122.11C707.53,-122.11 707.53,-140.99 707.53,-140.99"/>
<polygon fill="black" stroke="black" points="704.03,-140.99 707.53,-150.99 711.03,-140.99 704.03,-140.99"/>
</g>
<!-- StartButtonComponent -->
<g id="node7" class="node">
<title>StartButtonComponent</title>
<polygon fill="#ffffb3" stroke="black" points="519.89,-122 374.11,-122 374.11,-86 519.89,-86 519.89,-122"/>
<text text-anchor="middle" x="447" y="-99.8" font-family="Times,serif" font-size="14.00">StartButtonComponent</text>
</g>
<!-- StartButtonComponent&#45;&gt;AppModule -->
<g id="edge7" class="edge">
<title>StartButtonComponent&#45;&gt;AppModule</title>
<path fill="none" stroke="black" d="M447,-122.01C447,-138.05 447,-159 447,-159 447,-159 675.08,-159 675.08,-159"/>
<polygon fill="black" stroke="black" points="675.08,-162.5 685.08,-159 675.08,-155.5 675.08,-162.5"/>
</g>
<!-- TitleComponent -->
<g id="node8" class="node">
<title>TitleComponent</title>
<polygon fill="#ffffb3" stroke="black" points="355.77,-122 248.23,-122 248.23,-86 355.77,-86 355.77,-122"/>
<text text-anchor="middle" x="302" y="-99.8" font-family="Times,serif" font-size="14.00">TitleComponent</text>
</g>
<!-- TitleComponent&#45;&gt;AppModule -->
<g id="edge8" class="edge">
<title>TitleComponent&#45;&gt;AppModule</title>
<path fill="none" stroke="black" d="M302,-122.27C302,-140.56 302,-166 302,-166 302,-166 675.09,-166 675.09,-166"/>
<polygon fill="black" stroke="black" points="675.09,-169.5 685.09,-166 675.09,-162.5 675.09,-169.5"/>
</g>
<!-- StartButtonComponent  -->
<g id="node12" class="node">
<title>StartButtonComponent </title>
<polygon fill="#fb8072" stroke="black" points="725.89,-252 576.11,-252 576.11,-216 725.89,-216 725.89,-252"/>
<text text-anchor="middle" x="651" y="-229.8" font-family="Times,serif" font-size="14.00">StartButtonComponent </text>
</g>
<!-- AppModule&#45;&gt;StartButtonComponent  -->
<g id="edge11" class="edge">
<title>AppModule&#45;&gt;StartButtonComponent </title>
<path fill="none" stroke="black" stroke-dasharray="5,2" d="M705.43,-187.11C705.43,-187.11 705.43,-205.99 705.43,-205.99"/>
<polygon fill="black" stroke="black" points="701.93,-205.99 705.43,-215.99 708.93,-205.99 701.93,-205.99"/>
</g>
<!-- AppComponent  -->
<g id="node13" class="node">
<title>AppComponent </title>
<polygon fill="#80b1d3" stroke="black" points="858.44,-252 749.56,-252 749.56,-216 858.44,-216 858.44,-252"/>
<text text-anchor="middle" x="804" y="-229.8" font-family="Times,serif" font-size="14.00">AppComponent </text>
</g>
<!-- AppModule&#45;&gt;AppComponent  -->
<g id="edge12" class="edge">
<title>AppModule&#45;&gt;AppComponent </title>
<path fill="none" stroke="black" stroke-dasharray="1,5" d="M759.18,-187.11C759.18,-187.11 759.18,-205.99 759.18,-205.99"/>
<polygon fill="black" stroke="black" points="755.68,-205.99 759.18,-215.99 762.68,-205.99 755.68,-205.99"/>
</g>
<!-- AppRoutingModule -->
<g id="node10" class="node">
<title>AppRoutingModule</title>
<polygon fill="#8dd3c7" stroke="black" points="224.27,-122 221.27,-126 200.27,-126 197.27,-122 95.73,-122 95.73,-86 224.27,-86 224.27,-122"/>
<text text-anchor="middle" x="160" y="-99.8" font-family="Times,serif" font-size="14.00">AppRoutingModule</text>
</g>
<!-- AppRoutingModule&#45;&gt;AppModule -->
<g id="edge9" class="edge">
<title>AppRoutingModule&#45;&gt;AppModule</title>
<path fill="none" stroke="black" d="M160,-122.13C160,-142.57 160,-173 160,-173 160,-173 675.31,-173 675.31,-173"/>
<polygon fill="black" stroke="black" points="675.31,-176.5 685.31,-173 675.31,-169.5 675.31,-176.5"/>
</g>
<!-- NgIf -->
<g id="node11" class="node">
<title>NgIf</title>
<polygon fill="#8dd3c7" stroke="black" points="78,-122 75,-126 54,-126 51,-122 24,-122 24,-86 78,-86 78,-122"/>
<text text-anchor="middle" x="51" y="-99.8" font-family="Times,serif" font-size="14.00">NgIf</text>
</g>
<!-- NgIf&#45;&gt;AppModule -->
<g id="edge10" class="edge">
<title>NgIf&#45;&gt;AppModule</title>
<path fill="none" stroke="black" d="M51,-122.01C51,-144.49 51,-180 51,-180 51,-180 675.22,-180 675.22,-180"/>
<polygon fill="black" stroke="black" points="675.22,-183.5 685.22,-180 675.22,-176.5 675.22,-183.5"/>
</g>
</g>
</svg>
